# Blender v2.79 (sub 0) OBJ File: 'Garbage heap18.blend'
# www.blender.org
o Factory.001_Plane.000
v 8.608695 0.000000 -14.456519
v -14.565218 2.115134 -14.347826
v -14.456522 2.115134 -14.347826
v -14.565218 2.115134 14.347826
v 14.347826 2.115134 -14.456522
v 13.119972 0.000000 -14.565215
v -14.456521 0.000000 -14.347826
v -14.565216 0.000000 14.347826
v -14.456521 0.000000 14.347826
v -14.456521 2.115134 14.347826
v -14.565218 2.115134 -5.564713
v -14.565216 0.000000 -5.564714
v -14.456521 0.000000 -5.564714
v -14.456521 2.115134 -5.564714
v -14.565216 0.000000 -8.961613
v -14.456521 2.115134 -8.961613
v -14.565218 2.115134 -8.961613
v -14.456521 0.000000 -8.961613
v -14.565218 2.115134 -12.241318
v -14.456521 0.000000 -12.241318
v -14.565216 0.000000 -12.241318
v -14.456521 2.115134 -12.241318
v -14.565216 0.000000 -14.347826
v 14.347826 2.115134 -14.565216
v 14.347826 0.000000 -14.565216
v -14.347826 0.000000 -14.565216
v -14.347826 2.115134 -14.565216
v -14.347826 0.000000 -14.456521
v 14.347826 0.000000 -14.456521
v 13.119972 0.000000 -14.456518
v 13.119972 2.115134 -14.456520
v 13.119972 2.115134 -14.565215
v 8.608695 0.000000 -14.565215
v 8.608695 2.115134 -14.565215
v 8.608695 2.115134 -14.456520
v 3.512726 2.115134 -14.456522
v 3.512726 0.000000 -14.565216
v -14.347825 2.115134 -14.456522
v -14.565218 2.115134 5.486182
v -14.456521 2.115134 5.486182
v -14.456521 0.000000 5.911054
v 3.688133 0.000000 -14.456520
v 3.278849 0.000000 -14.456520
v 3.512726 2.115134 -14.565215
v -14.565216 0.000000 5.486182
v -14.565216 0.000000 5.911055
v -14.456521 2.115134 5.911055
v -14.565218 2.115134 5.911055
v -14.456521 0.000000 5.486182
vt 0.583524 0.831580
vt 0.583524 0.897837
vt 0.258862 0.897837
vt 0.258862 0.831580
vt 0.583524 0.898752
vt 0.583524 0.965010
vt 0.258862 0.965010
vt 0.258862 0.898752
vt 0.159476 0.965010
vt 0.159476 0.898752
vt 0.159476 0.897837
vt 0.159476 0.831580
vt 0.060089 0.965010
vt 0.060089 0.898752
vt 0.060089 0.897837
vt 0.060089 0.831580
vt 0.000458 0.965010
vt 0.000458 0.898752
vt 0.000458 0.897837
vt 0.000458 0.831580
vt 0.151446 0.468410
vt 0.151446 0.402152
vt 0.184575 0.402152
vt 0.184575 0.468410
vt 0.151446 0.401237
vt 0.151446 0.334980
vt 0.184575 0.334980
vt 0.184575 0.401237
vt 0.323716 0.402152
vt 0.323716 0.468410
vt 0.323716 0.334980
vt 0.323716 0.401237
vt 0.469482 0.334980
vt 0.469482 0.401237
vt 0.469482 0.402152
vt 0.469482 0.468410
vt 0.999542 0.334980
vt 0.999542 0.401237
vt 0.476108 0.468410
vt 0.999542 0.402152
vt 0.999542 0.468410
vt 0.848554 0.831580
vt 0.848554 0.897837
vt 0.596775 0.897837
vt 0.596775 0.831580
vt 0.848554 0.898753
vt 0.848554 0.965010
vt 0.596775 0.965010
vt 0.596775 0.898752
vn 1.0000 0.0000 0.0000
vn -1.0000 -0.0000 0.0000
vn 0.0000 0.0000 1.0000
vn -0.0000 0.0000 -1.0000
s off
f 40/1/1 49/2/1 13/3/1 14/4/1
f 45/5/2 39/6/2 11/7/2 12/8/2
f 12/8/2 11/7/2 17/9/2 15/10/2
f 14/4/1 13/3/1 18/11/1 16/12/1
f 15/10/2 17/9/2 19/13/2 21/14/2
f 16/12/1 18/11/1 20/15/1 22/16/1
f 21/14/2 19/13/2 2/17/2 23/18/2
f 22/16/1 20/15/1 7/19/1 3/20/1
f 29/21/3 5/22/3 31/23/3 30/24/3
f 24/25/4 25/26/4 6/27/4 32/28/4
f 30/24/3 31/23/3 35/29/3 1/30/3
f 32/28/4 6/27/4 33/31/4 34/32/4
f 34/32/4 33/31/4 37/33/4 44/34/4
f 1/30/3 35/29/3 36/35/3 42/36/3
f 44/34/4 37/33/4 26/37/4 27/38/4
f 43/39/3 36/35/3 38/40/3 28/41/3
f 10/42/1 9/43/1 41/44/1 47/45/1
f 8/46/2 4/47/2 48/48/2 46/49/2
f 42/36/3 36/35/3 43/39/3
f 47/45/1 41/44/1 49/2/1 40/1/1
f 46/49/2 48/48/2 39/6/2 45/5/2
